<?xml version="1.0" encoding="UTF-8" standalone="no"?>
<!DOCTYPE svg PUBLIC "-//W3C//DTD SVG 1.1//EN" "http://www.w3.org/Graphics/SVG/1.1/DTD/svg11.dtd">
<svg width="100%" height="100%" viewBox="0 0 1250 1250" version="1.1" xmlns="http://www.w3.org/2000/svg" xmlns:xlink="http://www.w3.org/1999/xlink" xml:space="preserve" xmlns:serif="http://www.serif.com/" style="fill-rule:evenodd;clip-rule:evenodd;stroke-linecap:round;stroke-linejoin:round;stroke-miterlimit:1.5;">
    <g transform="matrix(2.72777,0,0,2.72777,-1057.3,-1079.86)">
        <circle cx="618.645" cy="625" r="190.114" style="fill:white;"/>
    </g>
    <g>
        <g transform="matrix(2.4982,0,0,2.4982,-27.5046,-28.955)">
            <path d="M394.771,260.506C394.678,250.859 393.584,241.018 391.355,231.25C383.234,195.642 351.936,153.66 334.318,156.408C330.613,156.986 324.129,158.202 315.32,168.604C318.486,172.549 321.73,176.901 324.999,181.514C331.447,117.273 370.685,197.356 381.059,265.486C382.895,266.998 384.579,267.672 386.67,268.109C393.536,269.538 394.634,261.818 394.771,260.506ZM316.001,201.556C307.905,199.231 299.48,203.955 291.003,213.002C288.021,220.301 284.92,228.537 281.706,237.874C268.187,277.133 251.345,349.836 226.742,340.888C224.6,340.11 222.559,339.084 220.62,337.834C216.935,343.947 213.513,348.756 210.41,351.706C208.105,353.97 204.932,356.316 201.131,358.045C247.809,403.99 333.78,402.074 328.892,344.953C322.909,275.045 323.505,246.843 324.038,204.776C321.569,203.366 318.912,202.253 316.001,201.556ZM206.438,207.199C226.631,166.53 257.04,130.982 236.859,133.294C226.108,134.527 214.889,137.998 203.949,143.436C208.615,141.164 213.408,139.19 218.312,137.567C218.312,137.567 176.435,154.798 160.787,203.983C166.581,198.36 173.422,192.935 181.511,187.808C216.252,165.788 180.897,209.777 173.139,265.464C180.114,256.448 188.945,242.442 198.983,227.162C200.91,220.102 203.378,213.36 206.438,207.199Z" style="fill:rgb(254,69,69);fill-rule:nonzero;"/>
        </g>
        <g transform="matrix(2.4982,0,0,2.4982,-27.5046,-28.955)">
            <path d="M297.721,151.275C238.225,115.041 162.496,318.675 156.826,267.474C142.205,168.803 218.312,137.567 218.312,137.567C169.4,153.747 130.91,203.512 131.781,260.956C132.658,318.707 164.894,351.821 176.514,357.569C191.22,364.842 204.071,357.935 210.41,351.707C234.803,328.515 278.864,190.892 316.001,201.554C357.559,211.508 352.054,299.165 354.06,315.962C358.058,349.447 367.429,345.449 380.479,320.849C389.229,304.355 394.917,285.351 394.792,260.299C394.792,260.299 394.167,269.671 386.671,268.108C379.936,266.706 377.422,262.854 360.478,236.352C342.744,208.615 315.623,162.177 297.721,151.275Z" style="fill-rule:nonzero;"/>
        </g>
    </g>
    <g transform="matrix(0.957094,0,0,0.957094,29.3971,32.1896)">
        <circle cx="627.759" cy="619.385" r="585.142" style="fill-opacity:0;stroke:black;stroke-width:88.81px;"/>
    </g>
    <g transform="matrix(1,0,0,1,-315.484,-217.049)">
        <g transform="matrix(0.331737,-0.943372,0.943372,0.331737,-368.819,859.423)">
            <text x="422.205px" y="690.038px" style="font-family:'ArialMT', 'Arial', sans-serif;font-size:50px;fill:white;">S</text>
        </g>
        <g transform="matrix(0.386966,-0.922094,0.922094,0.386966,-341.587,803.278)">
            <text x="433.331px" y="658.538px" style="font-family:'ArialMT', 'Arial', sans-serif;font-size:50px;fill:white;">T</text>
        </g>
        <g transform="matrix(0.433962,-0.900931,0.900931,0.433962,-319.859,758.367)">
            <text x="443.595px" y="633.734px" style="font-family:'ArialMT', 'Arial', sans-serif;font-size:50px;fill:white;">A</text>
        </g>
        <g transform="matrix(0.479953,-0.877294,0.877294,0.479953,-295.174,716.07)">
            <text x="456.401px" y="607.007px" style="font-family:'ArialMT', 'Arial', sans-serif;font-size:50px;fill:white;">T</text>
        </g>
        <g transform="matrix(0.515087,-0.857138,0.857138,0.515087,-268.889,685.278)">
            <text x="471.208px" y="580.285px" style="font-family:'ArialMT', 'Arial', sans-serif;font-size:50px;fill:white;">I</text>
        </g>
        <g transform="matrix(0.551048,-0.834473,0.834473,0.551048,-259.501,654.164)">
            <text x="478.202px" y="568.251px" style="font-family:'ArialMT', 'Arial', sans-serif;font-size:50px;fill:white;">S</text>
        </g>
        <g transform="matrix(0.598852,-0.80086,0.80086,0.598852,-233.609,614.518)">
            <text x="496.614px" y="540.45px" style="font-family:'ArialMT', 'Arial', sans-serif;font-size:50px;fill:white;">T</text>
        </g>
        <g transform="matrix(0.630514,-0.776178,0.776178,0.630514,-210.326,590.435)">
            <text x="515px" y="516.134px" style="font-family:'ArialMT', 'Arial', sans-serif;font-size:50px;fill:white;">I</text>
        </g>
        <g transform="matrix(0.665287,-0.746587,0.746587,0.665287,-201.869,559.989)">
            <text x="523.602px" y="505.132px" style="font-family:'ArialMT', 'Arial', sans-serif;font-size:50px;fill:white;">C</text>
        </g>
        <g transform="matrix(0.71052,-0.703677,0.703677,0.71052,-177.949,523.803)">
            <text x="547.664px" y="478.183px" style="font-family:'ArialMT', 'Arial', sans-serif;font-size:50px;fill:white;">A</text>
        </g>
        <g transform="matrix(0.74943,-0.662083,0.662083,0.74943,-157.918,492.255)">
            <text x="571.387px" y="454.762px" style="font-family:'ArialMT', 'Arial', sans-serif;font-size:50px;fill:white;">L</text>
        </g>
        <g transform="matrix(0.781793,-0.623538,0.623538,0.781793,-142.833,464.466)">
            <text x="592.202px" y="436.31px" style="font-family:'ArialMT', 'Arial', sans-serif;font-size:50px;fill:white;">L</text>
        </g>
        <g transform="matrix(0.81006,-0.586347,0.586347,0.81006,-130.911,438.205)">
            <text x="610.916px" y="421.165px" style="font-family:'ArialMT', 'Arial', sans-serif;font-size:50px;fill:white;">Y</text>
        </g>
        <g transform="matrix(0.858204,-0.513309,0.513309,0.858204,-110.434,388.953)">
            <text x="648.799px" y="394.366px" style="font-family:'ArialMT', 'Arial', sans-serif;font-size:50px;fill:white;">C</text>
        </g>
        <g transform="matrix(0.891144,-0.453721,0.453721,0.891144,-96.4969,349.333)">
            <text x="679.775px" y="375.77px" style="font-family:'ArialMT', 'Arial', sans-serif;font-size:50px;fill:white;">O</text>
        </g>
        <g transform="matrix(0.919932,-0.392079,0.392079,0.919932,-83.2413,308.778)">
            <text x="714.391px" y="358.197px" style="font-family:'ArialMT', 'Arial', sans-serif;font-size:50px;fill:white;">N</text>
        </g>
        <g transform="matrix(0.943883,-0.33028,0.33028,0.943883,-71.6718,266.24)">
            <text x="747.648px" y="344.034px" style="font-family:'ArialMT', 'Arial', sans-serif;font-size:50px;fill:white;">N</text>
        </g>
        <g transform="matrix(0.963414,-0.268017,0.268017,0.963414,-60.4135,221.68)">
            <text x="781.773px" y="332.125px" style="font-family:'ArialMT', 'Arial', sans-serif;font-size:50px;fill:white;">E</text>
        </g>
        <g transform="matrix(0.978379,-0.20682,0.20682,0.978379,-49.2312,175.311)">
            <text x="813.871px" y="323.121px" style="font-family:'ArialMT', 'Arial', sans-serif;font-size:50px;fill:white;">C</text>
        </g>
        <g transform="matrix(0.989117,-0.147133,0.147133,0.989117,-37.2122,128.382)">
            <text x="849.2px" y="315.729px" style="font-family:'ArialMT', 'Arial', sans-serif;font-size:50px;fill:white;">T</text>
        </g>
        <g transform="matrix(0.996095,-0.0882841,0.0882841,0.996095,-24.0371,78.8575)">
            <text x="879.462px" y="311.167px" style="font-family:'ArialMT', 'Arial', sans-serif;font-size:50px;fill:white;">E</text>
        </g>
        <g transform="matrix(0.999668,-0.0257597,0.0257597,0.999668,-7.63481,23.6126)">
            <text x="912.68px" y="308.143px" style="font-family:'ArialMT', 'Arial', sans-serif;font-size:50px;fill:white;">D</text>
        </g>
        <g transform="matrix(0.998017,0.0629467,-0.0629467,0.998017,21.2616,-59.9899)">
            <text x="962.714px" y="307.442px" style="font-family:'ArialMT', 'Arial', sans-serif;font-size:50px;fill:white;">H</text>
        </g>
        <g transform="matrix(0.991923,0.126842,-0.126842,0.991923,47.3544,-124.18)">
            <text x="998.734px" y="309.736px" style="font-family:'ArialMT', 'Arial', sans-serif;font-size:50px;fill:white;">E</text>
        </g>
        <g transform="matrix(0.982096,0.188383,-0.188383,0.982096,77.6116,-188.769)">
            <text x="1031.88px" y="313.915px" style="font-family:'ArialMT', 'Arial', sans-serif;font-size:50px;fill:white;">U</text>
        </g>
        <g transform="matrix(0.966676,0.256002,-0.256002,0.966676,117.66,-262.564)">
            <text x="1067.38px" y="320.666px" style="font-family:'ArialMT', 'Arial', sans-serif;font-size:50px;fill:white;">R</text>
        </g>
        <g transform="matrix(0.954802,0.297242,-0.297242,0.954802,147.93,-312.689)">
            <text x="1102.16px" y="330.084px" style="font-family:'ArialMT', 'Arial', sans-serif;font-size:50px;fill:white;">I</text>
        </g>
        <g transform="matrix(0.941177,0.337914,-0.337914,0.941177,178.487,-357.293)">
            <text x="1115.5px" y="334.02px" style="font-family:'ArialMT', 'Arial', sans-serif;font-size:50px;fill:white;">S</text>
        </g>
        <g transform="matrix(0.919556,0.392959,-0.392959,0.919556,227.968,-422.906)">
            <text x="1146.91px" y="345.346px" style="font-family:'ArialMT', 'Arial', sans-serif;font-size:50px;fill:white;">T</text>
        </g>
        <g transform="matrix(0.902823,0.430012,-0.430012,0.902823,267.903,-470.488)">
            <text x="1174.92px" y="357.496px" style="font-family:'ArialMT', 'Arial', sans-serif;font-size:50px;fill:white;">I</text>
        </g>
        <g transform="matrix(0.882111,0.471041,-0.471041,0.882111,311.096,-516.571)">
            <text x="1187.56px" y="363.229px" style="font-family:'ArialMT', 'Arial', sans-serif;font-size:50px;fill:white;">C</text>
        </g>
        <g transform="matrix(0.850767,0.525542,-0.525542,0.850767,381.837,-584.112)">
            <text x="1219.43px" y="380.289px" style="font-family:'ArialMT', 'Arial', sans-serif;font-size:50px;fill:white;">A</text>
        </g>
        <g transform="matrix(0.819289,0.573381,-0.573381,0.819289,453.614,-643.555)">
            <text x="1247.78px" y="397.862px" style="font-family:'ArialMT', 'Arial', sans-serif;font-size:50px;fill:white;">L</text>
        </g>
        <g transform="matrix(0.789302,0.614005,-0.614005,0.789302,521.791,-692.986)">
            <text x="1270.63px" y="413.795px" style="font-family:'ArialMT', 'Arial', sans-serif;font-size:50px;fill:white;">L</text>
        </g>
        <g transform="matrix(0.759821,0.650133,-0.650133,0.759821,588.3,-735.588)">
            <text x="1289.72px" y="428.43px" style="font-family:'ArialMT', 'Arial', sans-serif;font-size:50px;fill:white;">Y</text>
        </g>
        <g transform="matrix(0.698901,0.715218,-0.715218,0.698901,727.064,-809.225)">
            <text x="1324.63px" y="458.906px" style="font-family:'ArialMT', 'Arial', sans-serif;font-size:50px;fill:white;">O</text>
        </g>
        <g transform="matrix(0.649708,0.760184,-0.760184,0.649708,843.537,-857.081)">
            <text x="1351.76px" y="486.757px" style="font-family:'ArialMT', 'Arial', sans-serif;font-size:50px;fill:white;">P</text>
        </g>
        <g transform="matrix(0.605715,0.795681,-0.795681,0.605715,949.034,-890.892)">
            <text x="1373.44px" y="512.147px" style="font-family:'ArialMT', 'Arial', sans-serif;font-size:50px;fill:white;">T</text>
        </g>
        <g transform="matrix(0.573227,0.819396,-0.819396,0.573227,1033.6,-911.457)">
            <text x="1391.79px" y="536.516px" style="font-family:'ArialMT', 'Arial', sans-serif;font-size:50px;fill:white;">I</text>
        </g>
        <g transform="matrix(0.531294,0.847187,-0.847187,0.531294,1120.26,-929.391)">
            <text x="1400.07px" y="547.742px" style="font-family:'ArialMT', 'Arial', sans-serif;font-size:50px;fill:white;">M</text>
        </g>
        <g transform="matrix(0.487651,0.873039,-0.873039,0.487651,1237.63,-942.566)">
            <text x="1421.88px" y="583.176px" style="font-family:'ArialMT', 'Arial', sans-serif;font-size:50px;fill:white;">I</text>
        </g>
        <g transform="matrix(0.452197,0.891918,-0.891918,0.452197,1313.59,-948.306)">
            <text x="1428.8px" y="595.224px" style="font-family:'ArialMT', 'Arial', sans-serif;font-size:50px;fill:white;">Z</text>
        </g>
        <g transform="matrix(0.397966,0.9174,-0.9174,0.397966,1439.62,-948.759)">
            <text x="1442.69px" y="622.495px" style="font-family:'ArialMT', 'Arial', sans-serif;font-size:50px;fill:white;">E</text>
        </g>
        <g transform="matrix(0.33882,0.940851,-0.940851,0.33882,1577.15,-938.121)">
            <text x="1456.04px" y="653.073px" style="font-family:'ArialMT', 'Arial', sans-serif;font-size:50px;fill:white;">D</text>
        </g>
    </g>
    <g transform="matrix(1,0,0,1,-338.636,-179.088)">
        <g transform="matrix(0.888806,0.458284,-0.458284,0.888806,675.847,-163.696)">
            <text x="675.257px" y="1310.89px" style="font-family:'ArialMT', 'Arial', sans-serif;font-size:50px;fill:white;">O</text>
        </g>
        <g transform="matrix(0.918198,0.396123,-0.396123,0.918198,584.416,-172.499)">
            <text x="709.865px" y="1328.75px" style="font-family:'ArialMT', 'Arial', sans-serif;font-size:50px;fill:white;">R</text>
        </g>
        <g transform="matrix(0.941157,0.337971,-0.337971,0.941157,497.67,-172.09)">
            <text x="743.039px" y="1343.15px" style="font-family:'ArialMT', 'Arial', sans-serif;font-size:50px;fill:white;">G</text>
        </g>
        <g transform="matrix(0.960671,0.27769,-0.27769,0.960671,407.26,-163.15)">
            <text x="779.601px" y="1356.18px" style="font-family:'ArialMT', 'Arial', sans-serif;font-size:50px;fill:white;">A</text>
        </g>
        <g transform="matrix(0.975656,0.219306,-0.219306,0.975656,319.222,-144.769)">
            <text x="811.699px" y="1365.5px" style="font-family:'ArialMT', 'Arial', sans-serif;font-size:50px;fill:white;">N</text>
        </g>
        <g transform="matrix(0.984312,0.176437,-0.176437,0.984312,255.567,-127.898)">
            <text x="846.994px" y="1373.18px" style="font-family:'ArialMT', 'Arial', sans-serif;font-size:50px;fill:white;">I</text>
        </g>
        <g transform="matrix(0.990304,0.138917,-0.138917,0.990304,199.465,-106.221)">
            <text x="860.664px" y="1375.79px" style="font-family:'ArialMT', 'Arial', sans-serif;font-size:50px;fill:white;">Z</text>
        </g>
        <g transform="matrix(0.99652,0.0833506,-0.0833506,0.99652,118.13,-69.4488)">
            <text x="890.828px" y="1380.08px" style="font-family:'ArialMT', 'Arial', sans-serif;font-size:50px;fill:white;">E</text>
        </g>
        <g transform="matrix(0.999699,0.0245371,-0.0245371,0.999699,34.2113,-22.2575)">
            <text x="924.064px" y="1382.93px" style="font-family:'ArialMT', 'Arial', sans-serif;font-size:50px;fill:white;">D</text>
        </g>
        <g transform="matrix(0.998573,-0.0534122,0.0534122,0.998573,-72.5063,54.0027)">
            <text x="974.081px" y="1383.52px" style="font-family:'ArialMT', 'Arial', sans-serif;font-size:50px;fill:white;">L</text>
        </g>
        <g transform="matrix(0.994485,-0.104883,0.104883,0.994485,-139.438,112.702)">
            <text x="1001.86px" y="1382.14px" style="font-family:'ArialMT', 'Arial', sans-serif;font-size:50px;fill:white;">E</text>
        </g>
        <g transform="matrix(0.987018,-0.160609,0.160609,0.987018,-207.99,184.132)">
            <text x="1035.03px" y="1378.67px" style="font-family:'ArialMT', 'Arial', sans-serif;font-size:50px;fill:white;">A</text>
        </g>
        <g transform="matrix(0.974949,-0.222426,0.222426,0.974949,-278.727,271.952)">
            <text x="1067.98px" y="1373.4px" style="font-family:'ArialMT', 'Arial', sans-serif;font-size:50px;fill:white;">R</text>
        </g>
        <g transform="matrix(0.959939,-0.280209,0.280209,0.959939,-338.406,363.826)">
            <text x="1103.2px" y="1365.41px" style="font-family:'ArialMT', 'Arial', sans-serif;font-size:50px;fill:white;">N</text>
        </g>
        <g transform="matrix(0.94664,-0.322294,0.322294,0.94664,-376.009,439.02)">
            <text x="1137.83px" y="1355.05px" style="font-family:'ArialMT', 'Arial', sans-serif;font-size:50px;fill:white;">I</text>
        </g>
        <g transform="matrix(0.931751,-0.363098,0.363098,0.931751,-411.905,510.152)">
            <text x="1151.1px" y="1350.78px" style="font-family:'ArialMT', 'Arial', sans-serif;font-size:50px;fill:white;">N</text>
        </g>
        <g transform="matrix(0.905955,-0.423373,0.423373,0.905955,-454.941,627.38)">
            <text x="1184.71px" y="1337.72px" style="font-family:'ArialMT', 'Arial', sans-serif;font-size:50px;fill:white;">G</text>
        </g>
    </g>
    <ellipse cx="514.327" cy="341.34" rx="87.034" ry="81.192" style="fill-opacity:0;"/>
</svg>
